<svg width="844" height="19" viewBox="0 0 844 19" fill="none" xmlns="http://www.w3.org/2000/svg">
<path opacity="0.75" d="M54 18L47.0718 5.25L60.9282 5.25L54 18Z" fill="#2C81C2"/>
<path opacity="0.75" d="M100 17L93.0718 5L106.928 5L100 17Z" fill="#FCD424"/>
<path opacity="0.75" d="M77 19L70.0718 4.75L83.9282 4.75L77 19Z" fill="#8F2367"/>
<path opacity="0.75" d="M31 17L24.0718 5L37.9282 5L31 17Z" fill="#F16325"/>
<path opacity="0.75" d="M8 19L1.0718 4.75L14.9282 4.75L8 19Z" fill="#53A247"/>
<path opacity="0.75" d="M123 18L116.072 5.25L129.928 5.25L123 18Z" fill="#53A247"/>
<path opacity="0.75" d="M169 17L162.072 5L175.928 5L169 17Z" fill="#2C81C2"/>
<path opacity="0.75" d="M146 19L139.072 4.75L152.928 4.75L146 19Z" fill="#F16325"/>
<path opacity="0.75" d="M261 18L254.072 5.25L267.928 5.25L261 18Z" fill="#F16325"/>
<path opacity="0.75" d="M307 17L300.072 5L313.928 5L307 17Z" fill="#8F2367"/>
<path opacity="0.75" d="M284 19L277.072 4.75L290.928 4.75L284 19Z" fill="#2C81C2"/>
<path opacity="0.75" d="M192 18L185.072 5.25L198.928 5.25L192 18Z" fill="#8F2367"/>
<path opacity="0.75" d="M238 17L231.072 5L244.928 5L238 17Z" fill="#53A247"/>
<path opacity="0.75" d="M215 19L208.072 4.75L221.928 4.75L215 19Z" fill="#FCD424"/>
<path opacity="0.75" d="M330 18L323.072 5.25L336.928 5.25L330 18Z" fill="#FCD424"/>
<path opacity="0.75" d="M376 17L369.072 5L382.928 5L376 17Z" fill="#F16325"/>
<path opacity="0.75" d="M353 19L346.072 4.75L359.928 4.75L353 19Z" fill="#53A247"/>
<path opacity="0.75" d="M468 18L461.072 5.25L474.928 5.25L468 18Z" fill="#53A247"/>
<path opacity="0.75" d="M514 17L507.072 5L520.928 5L514 17Z" fill="#2C81C2"/>
<path opacity="0.75" d="M491 19L484.072 4.75L497.928 4.75L491 19Z" fill="#F16325"/>
<path opacity="0.75" d="M399 18L392.072 5.25L405.928 5.25L399 18Z" fill="#2C81C2"/>
<path opacity="0.75" d="M445 17L438.072 5L451.928 5L445 17Z" fill="#FCD424"/>
<path opacity="0.75" d="M422 19L415.072 4.75L428.928 4.75L422 19Z" fill="#8F2367"/>
<path opacity="0.75" d="M537 18L530.072 5.25L543.928 5.25L537 18Z" fill="#8F2367"/>
<path opacity="0.75" d="M583 17L576.072 5L589.928 5L583 17Z" fill="#53A247"/>
<path opacity="0.75" d="M560 19L553.072 4.75L566.928 4.75L560 19Z" fill="#FCD424"/>
<path opacity="0.75" d="M675 18L668.072 5.25L681.928 5.25L675 18Z" fill="#FCD424"/>
<path opacity="0.75" d="M721 17L714.072 5L727.928 5L721 17Z" fill="#F16325"/>
<path opacity="0.75" d="M698 19L691.072 4.75L704.928 4.75L698 19Z" fill="#53A247"/>
<path opacity="0.75" d="M606 18L599.072 5.25L612.928 5.25L606 18Z" fill="#F16325"/>
<path opacity="0.75" d="M652 17L645.072 5L658.928 5L652 17Z" fill="#8F2367"/>
<path opacity="0.75" d="M629 19L622.072 4.75L635.928 4.75L629 19Z" fill="#2C81C2"/>
<path opacity="0.75" d="M744 18L737.072 5.25L750.928 5.25L744 18Z" fill="#2C81C2"/>
<path opacity="0.75" d="M790 17L783.072 5L796.928 5L790 17Z" fill="#FCD424"/>
<path opacity="0.75" d="M767 19L760.072 4.75L773.928 4.75L767 19Z" fill="#8F2367"/>
<path opacity="0.75" d="M813 18L806.072 5.25L819.928 5.25L813 18Z" fill="#53A247"/>
<path opacity="0.75" d="M836 19L829.072 4.75L842.928 4.75L836 19Z" fill="#F16325"/>
</svg>
